<svg width="342" height="342" xmlns="http://www.w3.org/2000/svg" xml:space="preserve" fill-rule="evenodd" clip-rule="evenodd" stroke-linejoin="round" stroke-miterlimit="2"><path d="M58.239 100.309c-5.203-5.203-13.652-5.203-18.856 0-5.203 5.204-5.203 13.653 0 18.856l9.428 9.428c5.204 5.204 13.653 5.204 18.856 0 5.204-5.203 5.204-13.652 0-18.856l-9.428-9.428Zm103.002 140.714c5.204 5.204 13.653 5.204 18.856 0 5.204-5.203 5.204-13.652 0-18.856l-76.603-76.603c-5.203-5.203-13.653-5.203-18.856 0-5.204 5.204-5.204 13.653 0 18.856l76.603 76.603ZM301.95 119.165c5.204-5.203 5.204-13.652 0-18.856-5.203-5.203-13.652-5.203-18.856 0l-9.428 9.428c-5.204 5.204-5.204 13.653 0 18.856 5.203 5.204 13.653 5.204 18.856 0l9.428-9.428Z"/><path d="M161.236 222.167c-5.204 5.204-5.204 13.653 0 18.856 5.203 5.204 13.653 5.204 18.856 0l76.603-76.603c5.204-5.203 5.204-13.651 0-18.856-5.203-5.203-13.652-5.203-18.856 0l-76.603 76.603Z"/></svg>