<svg width="342" height="342" xmlns="http://www.w3.org/2000/svg" xml:space="preserve" fill-rule="evenodd" clip-rule="evenodd" stroke-linejoin="round" stroke-miterlimit="2"><path d="M26.667 13.333C26.667 5.974 20.692 0 13.333 0S0 5.974 0 13.333v108.334C0 129.026 5.974 135 13.333 135s13.334-5.974 13.334-13.333V13.333Z"/><path d="M13.333 0C5.974 0 0 5.974 0 13.333s5.974 13.334 13.333 13.334h108.334c7.359 0 13.333-5.975 13.333-13.334S129.026 0 121.667 0H13.333ZM26.667 172.333c0-7.359-5.975-13.333-13.334-13.333S0 164.974 0 172.333v13.334C0 193.026 5.974 199 13.333 199s13.334-5.974 13.334-13.333v-13.334Z"/></svg>