<svg width="342" height="342" xmlns="http://www.w3.org/2000/svg" xml:space="preserve" fill-rule="evenodd" clip-rule="evenodd" stroke-linejoin="round" stroke-miterlimit="2"><path d="M341.333 155.667c0-7.359-5.974-13.334-13.333-13.334s-13.333 5.975-13.333 13.334V169c0 7.359 5.974 13.333 13.333 13.333s13.333-5.974 13.333-13.333v-13.333ZM314.667 328c0 7.359 5.974 13.333 13.333 13.333s13.333-5.974 13.333-13.333V219.667c0-7.359-5.974-13.334-13.333-13.334s-13.333 5.975-13.333 13.334V328Z"/><path d="M328 341.333c7.359 0 13.333-5.974 13.333-13.333s-5.974-13.333-13.333-13.333H219.667c-7.359 0-13.334 5.974-13.334 13.333s5.975 13.333 13.334 13.333H328Z"/></svg>