<svg width="1366" height="1366" xmlns="http://www.w3.org/2000/svg" xml:space="preserve" fill-rule="evenodd" clip-rule="evenodd" stroke-linejoin="round" stroke-miterlimit="2"><path d="M522.24 318.665c90.825-94.63 230.798-135.259 364.188-92.981a355.532 355.532 0 0 1 204.482 168.279c67.16 25.987 126.78 72.443 168.76 136.349 107.71 163.994 62.02 384.588-101.97 492.308a355.516 355.516 0 0 1-193.03 58.35l-.001-.12H296.133v.12c-119.57 0-216.5-96.927-216.5-216.496 0-17.002 2.002-33.89 5.929-50.323-50.196-99.057-51.597-217.094-1.456-318.375 80.891-163.397 270.566-237.17 438.134-177.111ZM182.133 812c-8.188 17.163-13.64 33.456-13.64 52.474 0 68.969 54.702 125.162 123.087 127.56h677.125a266.635 266.635 0 0 0 140.205-43.702c122.99-80.787 157.26-246.233 76.47-369.228C1114.25 470.808 984.058 469.096 919.133 450c-34-10-103-28-97.776-50.786 4.232-18.462 92.924-29.122 139.896-29.271a266.599 266.599 0 0 0-101.677-59.538c-140.277-44.461-290.261 33.33-334.722 173.607-8.173 25.785-10.768 57.823-27.721 71.988-16.954 14.165-64.5 29.473-74 13s6.103-77.46 17-111.841c6.988-22.049 15.932-42.941 26.58-62.544-118.864-29.511-246.384 26.315-302.958 140.592-43.345 87.553-35.334 191.801 20.878 271.705l-2.5 5.088Z"/><path d="M256.133 808.088c0 72.729 58.958 131.687 131.687 131.687 17.446 0 34.719-3.467 50.814-10.199l-12.704-30.372a98.76 98.76 0 0 1-38.11 7.649c-54.547 0-98.766-44.218-98.766-98.765h-32.921ZM919.133 906.552a131.69 131.69 0 0 0 34.593 14.839c70.204 18.811 142.474-22.913 161.284-93.117a131.673 131.673 0 0 0 4.44-37.378l-32.91.824a98.57 98.57 0 0 1-3.33 28.033c-14.11 52.653-68.31 83.946-120.963 69.838a98.756 98.756 0 0 1-25.945-11.129l-17.169 28.09Z"/></svg>