<svg width="342" height="342" xmlns="http://www.w3.org/2000/svg" xml:space="preserve" fill-rule="evenodd" clip-rule="evenodd" stroke-linecap="round" stroke-linejoin="round" stroke-miterlimit="1.5"><circle cx="170.667" cy="170.667" r="134.333" fill="none" stroke="#000" stroke-width="26.67"/><path d="M15.078 2.585c-3.448-3.447-9.045-3.447-12.493 0-3.447 3.448-3.447 9.045 0 12.493L148.94 161.432c3.447 3.447 9.045 3.447 12.492 0 3.447-3.447 3.447-9.045 0-12.492L15.078 2.585ZM161.432 192.394c3.447-3.448 3.447-9.045 0-12.493-3.447-3.447-9.045-3.447-12.492 0L2.585 326.256c-3.447 3.447-3.447 9.045 0 12.492 3.448 3.447 9.045 3.447 12.493 0l146.354-146.354ZM326.256 338.748c3.447 3.447 9.045 3.447 12.492 0 3.447-3.447 3.447-9.045 0-12.492L192.394 179.901c-3.448-3.447-9.045-3.447-12.493 0-3.447 3.448-3.447 9.045 0 12.493l146.355 146.354ZM179.901 148.94c-3.447 3.447-3.447 9.045 0 12.492 3.448 3.447 9.045 3.447 12.493 0L338.748 15.078c3.447-3.448 3.447-9.045 0-12.493-3.447-3.447-9.045-3.447-12.492 0L179.901 148.94Z"/></svg>