<svg width="342" height="342" xmlns="http://www.w3.org/2000/svg" xml:space="preserve" fill-rule="evenodd" clip-rule="evenodd" stroke-linecap="round" stroke-linejoin="round" stroke-miterlimit="1.5"><path d="M84.179 25.159C66.517 45.107 46.654 73.265 42.695 88.041c-3.399 12.685 4.141 25.744 16.826 29.143 12.686 3.399 25.744-4.14 29.144-16.826 3.959-14.776-18.332-41.911-4.486-75.199ZM185.768 152c-19.528 22.056-41.489 53.188-45.866 69.525-3.759 14.026 4.577 28.465 18.603 32.223 14.026 3.758 28.464-4.578 32.223-18.604 4.377-16.337-20.269-46.338-4.96-83.144ZM281.483 64c-12.644 14.281-26.863 34.438-29.698 45.016-2.433 9.081 2.964 18.43 12.046 20.863 9.081 2.433 18.429-2.964 20.863-12.045 2.834-10.578-13.124-30.003-3.211-53.834ZM59.726 211.054c-16.588 18.734-35.242 45.178-38.96 59.055-3.192 11.914 3.888 24.178 15.802 27.37 11.914 3.193 24.178-3.888 27.37-15.802 3.718-13.877-17.217-39.36-4.212-70.623ZM264.956 258.068c-11.256 12.712-23.913 30.656-26.436 40.072-2.166 8.084 2.638 16.405 10.722 18.571 8.084 2.167 16.406-2.638 18.572-10.722 2.523-9.416-11.682-26.708-2.858-47.921Z" fill="none" stroke="#000" stroke-width="10.67"/></svg>