<svg width="342" height="342" xmlns="http://www.w3.org/2000/svg" xml:space="preserve" fill-rule="evenodd" clip-rule="evenodd" stroke-linecap="round" stroke-linejoin="round" stroke-miterlimit="1.5"><path fill="none" stroke="#000" stroke-width="8" d="M19 46h162v.933H19zM100 97.239h191v.114H100zM157 158h162v.933H157zM80 224h67v.106H80zM14.5 199H68v.933H14.5zM29 112h47v.933H29zM17 158h37v.933H17zM86 166.37h32.5v.327H86zM180 281.128h32.5v.327H180zM264.5 269H297v.327h-32.5zM18 324h45v.327H18zM217 66h37v.933h-37zM183.5 128.437h67v.327h-67zM272 24h32.5v.933H272zM137 197.691h151v.114H137zM8.667 250.3h162v1.4h-162zM212.5 239h104v.933h-104zM100 304h162v.933H100z"/></svg>