<svg width="342" height="342" xmlns="http://www.w3.org/2000/svg" xml:space="preserve" fill-rule="evenodd" clip-rule="evenodd" stroke-linecap="round" stroke-linejoin="round" stroke-miterlimit="1.5"><path d="M111.619 18c-31.994 36.134-67.971 87.136-75.142 113.9-6.157 22.978 7.5 46.632 30.477 52.789 22.978 6.157 46.632-7.5 52.789-30.478 7.171-26.764-33.205-75.914-8.124-136.211ZM267.619 86.584c-31.994 36.133-67.971 87.136-75.142 113.9-6.157 22.978 7.5 46.632 30.477 52.789 22.978 6.157 46.632-7.5 52.789-30.478 7.171-26.764-33.205-75.914-8.124-136.211ZM317.281 20.121c-12.644 14.281-26.863 34.438-29.697 45.016-2.434 9.081 2.964 18.43 12.045 20.863s18.43-2.964 20.863-12.045c2.834-10.578-13.123-30.003-3.211-53.834ZM47.726 211.154c-16.588 18.735-35.242 45.179-38.96 59.056-3.192 11.913 3.888 24.177 15.802 27.37 11.914 3.192 24.178-3.889 27.37-15.803 3.718-13.877-17.217-39.36-4.212-70.623Z" fill="none" stroke="#000" stroke-width="12"/><path d="m161.58 85.43-9.565-1.214m11.343 8.029-7.693 5.96m13.753-2.461-1.315 9.642m8.106-11.51 5.834 7.677m-2.29-13.816 9.565 1.214m-11.343-8.029 7.693-5.959m-13.753 2.461 1.315-9.642m-8.106 11.509-5.833-7.676m31.463 26.566-16.775-9.685m2.583 20.679-4.924-18.867m-12.721 16.627 9.812-16.996m-20.575 2.835 18.802-5.17m-16.377-12.618 16.776 9.686m-2.584-20.68 4.924 18.868m12.722-16.628-9.813 16.996m1.774 2.335 18.801-5.169M172.604 83.228c1.828 1.056 2.444 3.416 1.375 5.268-1.07 1.852-3.422 2.499-5.25 1.443-1.828-1.055-2.444-3.415-1.374-5.267 1.069-1.852 3.421-2.499 5.249-1.444Z" fill="none" stroke="#000" stroke-width="2.27"/><path d="M175.297 78.564c4.369 2.522 5.841 8.164 3.286 12.59-2.556 4.426-8.178 5.972-12.547 3.45-4.369-2.523-5.841-8.164-3.285-12.591 2.555-4.426 8.177-5.972 12.546-3.449ZM106.255 238.663l-15.112-6.177m15.034 18.102-15.194 6.376m23.571 2.002-6.375 15.193m18.3-15.271 6.177 15.111m2.311-23.599 15.111 6.177m-15.033-18.102 15.193-6.375m-23.571-2.002 6.376-15.194m-18.301 15.272-6.177-15.112m39.816 57.238-23.192-23.192m-4.837 34.953.216-33.015m-28.093 21.62 23.497-23.497m-34.893-4.381 33.015-.216M92.84 216.761l23.192 23.192M120.869 205l-.216 33.015m28.093-21.619-23.496 23.497m1.877 4.596 33.015-.216M125.25 239.893c2.527 2.527 2.5 6.657-.061 9.217-2.56 2.561-6.69 2.588-9.217.061-2.528-2.527-2.501-6.658.06-9.218 2.56-2.56 6.691-2.587 9.218-.06Z" fill="none" stroke="#000" stroke-width="2.27"/><path d="M131.698 233.444c6.04 6.04 5.976 15.912-.144 22.031-6.119 6.12-15.991 6.184-22.031.144-6.04-6.04-5.976-15.912.144-22.031 6.119-6.119 15.991-6.184 22.031-.144Z" fill="none" stroke="#000" stroke-width="2.27"/><path d="m211.775 301.989-5.892 2.472m9.172.85-2.441 5.97m7.078-5.97 2.441 5.97m.839-9.292 5.892 2.472m-5.892-7.171 5.892-2.473m-9.172-.849 2.441-5.971m-7.078 5.971-2.441-5.971m-.839 9.293-5.892-2.473m26.864 4.822h-12.839m8.336 11.014-9.078-9.198m-1.792 13.76v-13.008m-10.871 8.446 9.079-9.198M202 299.639h12.839m-8.336-11.014 9.079 9.199m1.792-13.761v13.008m1.792.753 9.078-9.199" fill="none" stroke="#000" stroke-width="1.2"/><ellipse cx="217.374" cy="299.639" rx="2.535" ry="2.568" fill="none" stroke="#000" stroke-width="1.2"/><ellipse cx="217.374" cy="299.639" rx="6.058" ry="6.138" fill="none" stroke="#000" stroke-width="1.2"/></svg>