<?xml version="1.0" encoding="UTF-8" standalone="no"?>
<!DOCTYPE svg PUBLIC "-//W3C//DTD SVG 1.1//EN" "http://www.w3.org/Graphics/SVG/1.1/DTD/svg11.dtd">
<svg width="342px" height="342px" version="1.1" xmlns="http://www.w3.org/2000/svg" xmlns:xlink="http://www.w3.org/1999/xlink" xml:space="preserve" xmlns:serif="http://www.serif.com/" style="fill-rule:evenodd;clip-rule:evenodd;stroke-linejoin:round;stroke-miterlimit:2;">
    <path d="M245.743,89.36C225.299,70.483 198.493,60 170.667,60C109.588,60 60,109.588 60,170.667C60,231.745 109.588,281.333 170.667,281.333C231.786,281.333 281.333,231.786 281.333,170.667L253.667,170.667C253.667,216.506 216.506,253.667 170.667,253.667C124.858,253.667 87.667,216.476 87.667,170.667C87.667,124.858 124.858,87.667 170.667,87.667C191.537,87.667 211.641,95.529 226.974,109.687L245.743,89.36Z"/>
    <path d="M265.641,160.282L191,111L260.282,71L265.641,160.282Z"/>
</svg>
