<svg width="342" height="342" xmlns="http://www.w3.org/2000/svg" xml:space="preserve" fill-rule="evenodd" clip-rule="evenodd" stroke-linecap="round" stroke-linejoin="round" stroke-miterlimit="1.5"><path d="M170.667 35.594c-74.549 0-135.073 60.524-135.073 135.073 0 74.548 60.524 135.072 135.073 135.072-31.95-25.728-57.889-77.395-57.889-135.072 0-57.678 25.939-109.345 57.889-135.073Z" fill="none" stroke="#000" stroke-width="14.67"/><path d="M207.361 84v40l19.001-19.001L207.361 124h40-40l19.001 19.001L207.361 124v40-40l-19.001 19.001L207.361 124h-40 40l-19.001-19.001L207.361 124V84ZM255 126v26l12.351-12.351L255 152h26-26l12.351 12.351L255 152v26-26l-12.351 12.351L255 152h-26 26l-12.351-12.351L255 152v-26ZM193.361 212v26l12.351-12.351L193.361 238h26-26l12.351 12.351L193.361 238v26-26l-12.35 12.351L193.361 238h-26 26l-12.35-12.351L193.361 238v-26ZM220.333 170.667V188l8.234-8.234-8.234 8.234h17.334-17.334l8.234 8.234-8.234-8.234v17.333V188l-8.233 8.234 8.233-8.234H203h17.333l-8.233-8.234 8.233 8.234v-17.333ZM247.361 208v17.333l8.234-8.233-8.234 8.233h17.334-17.334l8.234 8.234-8.234-8.234v17.334-17.334l-8.234 8.234 8.234-8.234h-17.333 17.333l-8.234-8.233 8.234 8.233V208ZM247.361 59v12.333l5.859-5.858-5.859 5.858h12.334-12.334l5.859 5.859-5.859-5.859v12.334-12.334l-5.858 5.859 5.858-5.859h-12.333 12.333l-5.858-5.858 5.858 5.858V59Z" fill="none" stroke="#000" stroke-width="2.67"/></svg>