<svg width="2134" height="2134" xmlns="http://www.w3.org/2000/svg" xml:space="preserve" fill-rule="evenodd" clip-rule="evenodd" stroke-linecap="round" stroke-linejoin="round" stroke-miterlimit="1.5"><path d="M1505.32 1104.44c1.12-12.79 1.68-25.61 1.68-38.44 0-243.395-197.61-441-441-441-243.395 0-441 197.605-441 441 0 216.92 157.758 401.64 372.012 435.57l16.928-106.87c-161.685-25.61-280.736-165-280.736-328.7 0-183.675 149.121-332.796 332.796-332.796 183.67 0 332.8 149.121 332.8 332.796 0 9.68-.43 19.36-1.27 29.01l107.79 9.43Z"/><g fill="none" stroke="#000" stroke-width="116.67"><path d="M1066 216.104a.106.106 0 0 0-.1-.104h-.21c-.06 0-.11.047-.11.104v266.458c0 .058.05.105.11.105h.21c.05 0 .1-.047.1-.105V216.104ZM482.562 1066.42c.058 0 .105-.05.105-.11v-.21c0-.05-.047-.1-.105-.1H216.104a.106.106 0 0 0-.104.1v.21c0 .06.047.11.104.11h266.458Z"/></g><g fill="none" stroke="#000" stroke-width="116.67"><path d="M1667.07 464.797a.105.105 0 0 0 0-.147l-.15-.147a.107.107 0 0 0-.15 0l-188.41 188.414a.105.105 0 0 0 0 .147l.14.148c.04.04.11.04.15 0l188.42-188.415ZM653.25 653.506a.104.104 0 0 0 .148 0l.147-.147a.103.103 0 0 0 0-.147L465.131 464.797a.106.106 0 0 0-.148 0l-.147.148a.103.103 0 0 0 0 .147L653.25 653.506ZM653.25 1478.02a.095.095 0 0 0 0-.14l-.147-.15a.105.105 0 0 0-.147 0l-188.415 188.41c-.04.04-.04.11 0 .15l.148.15c.04.04.106.04.147 0l188.414-188.42Z"/></g><path d="M1370.36 1116.81c80.17-83.54 203.74-119.404 321.49-82.08a313.825 313.825 0 0 1 180.51 148.55c59.29 22.94 111.93 63.95 148.98 120.37 95.09 144.77 54.76 339.5-90.01 434.59a313.893 313.893 0 0 1-170.41 51.52v-.11h-590.17v.11c-105.55 0-191.119-85.57-191.119-191.12 0-15.01 1.768-29.92 5.235-44.43-44.313-87.44-45.55-191.64-1.287-281.05 71.411-144.24 238.851-209.37 386.781-156.35Zm-300.24 435.51c-7.23 15.15-12.04 29.53-12.04 46.32 0 60.88 48.28 110.49 108.65 112.61h597.75a235.423 235.423 0 0 0 123.77-38.58c108.58-71.32 138.83-217.37 67.51-325.95-62.79-95.6-177.72-97.11-235.04-113.97-30.01-8.83-90.92-24.72-86.31-44.83 3.73-16.3 82.03-25.71 123.49-25.84a235.322 235.322 0 0 0-89.75-52.56c-123.84-39.25-256.24 29.42-295.49 153.25-7.21 22.77-9.5 51.05-24.47 63.55-14.97 12.51-56.94 26.02-65.32 11.48-8.39-14.54 5.38-68.38 15-98.73 6.17-19.46 14.07-37.91 23.47-55.21-104.93-26.05-217.51 23.23-267.45 124.11-38.26 77.29-31.19 169.32 18.43 239.85l-2.2 4.5Z"/><path d="M1135.44 1548.86c0 64.21 52.05 116.25 116.25 116.25 15.4 0 30.65-3.06 44.86-9l-11.21-26.81a87.369 87.369 0 0 1-33.65 6.75c-48.15 0-87.19-39.04-87.19-87.19h-29.06ZM1720.72 1635.78c9.5 5.81 19.79 10.22 30.54 13.1 61.98 16.61 125.77-20.23 142.38-82.2 2.88-10.75 4.2-21.86 3.92-33l-29.05.73c.21 8.35-.78 16.68-2.94 24.75-12.46 46.48-60.31 74.11-106.79 61.65a87.282 87.282 0 0 1-22.9-9.82l-15.16 24.79Z"/></svg>