<svg width="342" height="342" xmlns="http://www.w3.org/2000/svg" xml:space="preserve" fill-rule="evenodd" clip-rule="evenodd" stroke-linecap="round" stroke-linejoin="round" stroke-miterlimit="1.5"><path d="M170.667 35.594c-74.549 0-135.073 60.524-135.073 135.073 0 74.548 60.524 135.072 135.073 135.072-31.95-25.728-57.889-77.395-57.889-135.072 0-57.678 25.939-109.345 57.889-135.073Z" fill="none" stroke="#000" stroke-width="14.67"/><path d="M207.361 84v40l19.001-19.001L207.361 124h40-40l19.001 19.001L207.361 124v40-40l-19.001 19.001L207.361 124h-40 40l-19.001-19.001L207.361 124V84ZM255 126v26l12.351-12.351L255 152h26-26l12.351 12.351L255 152v26-26l-12.351 12.351L255 152h-26 26l-12.351-12.351L255 152v-26ZM220.333 170.667V188l8.234-8.234-8.234 8.234h17.334-17.334l8.234 8.234-8.234-8.234v17.333V188l-8.233 8.234 8.233-8.234H203h17.333l-8.233-8.234 8.233 8.234v-17.333ZM247.361 208v17.333l8.234-8.233-8.234 8.233h17.334-17.334l8.234 8.234-8.234-8.234v17.334-17.334l-8.234 8.234 8.234-8.234h-17.333 17.333l-8.234-8.233 8.234 8.233V208ZM247.361 59v12.333l5.859-5.858-5.859 5.858h12.334-12.334l5.859 5.859-5.859-5.859v12.334-12.334l-5.858 5.859 5.858-5.859h-12.333 12.333l-5.858-5.858 5.858 5.858V59Z" fill="none" stroke="#000" stroke-width="2.67"/><path d="M216.697 203.858c10.649-11.095 27.061-15.859 42.701-10.902a41.68 41.68 0 0 1 23.974 19.73 41.57 41.57 0 0 1 19.787 15.987c12.63 19.228 7.273 45.092-11.955 57.722a41.684 41.684 0 0 1-22.633 6.842v-.015h-78.384v.015c-14.019 0-25.384-11.365-25.384-25.384 0-1.994.234-3.974.695-5.9a41.683 41.683 0 0 1-.171-37.329c9.484-19.158 31.723-27.808 51.37-20.766ZM176.821 261.7c-.96 2.013-1.6 3.923-1.6 6.153 0 8.086 6.414 14.675 14.432 14.956h79.391a31.259 31.259 0 0 0 16.439-5.124c14.421-9.472 18.439-28.87 8.967-43.291-8.34-12.698-23.605-12.898-31.218-15.137-3.986-1.173-12.076-3.283-11.464-5.955.496-2.164 10.895-3.414 16.403-3.432a31.252 31.252 0 0 0-11.922-6.98c-16.447-5.213-34.032 3.907-39.245 20.355-.958 3.023-1.263 6.779-3.25 8.44-1.988 1.661-7.563 3.456-8.677 1.524-1.114-1.931.716-9.082 1.993-13.113a41.902 41.902 0 0 1 3.117-7.333c-13.937-3.46-28.888 3.085-35.521 16.484a31.261 31.261 0 0 0 2.448 31.857l-.293.596Z"/><path d="M185.497 261.242c0 8.527 6.913 15.44 15.44 15.44 2.045 0 4.071-.407 5.958-1.196l-1.49-3.561a11.577 11.577 0 0 1-4.468.897c-6.396 0-11.58-5.185-11.58-11.58h-3.86ZM263.232 272.786a15.398 15.398 0 0 0 4.056 1.74c8.231 2.206 16.705-2.686 18.91-10.917.383-1.429.559-2.905.522-4.383l-3.859.097a11.604 11.604 0 0 1-.391 3.286c-1.654 6.174-8.009 9.843-14.183 8.189a11.606 11.606 0 0 1-3.042-1.305l-2.013 3.293Z"/></svg>