<svg width="342" height="342" xmlns="http://www.w3.org/2000/svg" xml:space="preserve" fill-rule="evenodd" clip-rule="evenodd" stroke-linecap="round" stroke-linejoin="round" stroke-miterlimit="1.5"><path d="M117 211.824c-2.117-11.434-4.222-29.003-4.222-41.157 0-57.678 25.939-109.345 57.889-135.073-74.549 0-135.073 60.524-135.073 135.073 0 52.449 33.46 98.829 77.184 121.2" fill="none" stroke="#000" stroke-width="14.67"/><path d="M207.361 84v40l19.001-19.001L207.361 124h40-40l19.001 19.001L207.361 124v40-40l-19.001 19.001L207.361 124h-40 40l-19.001-19.001L207.361 124V84ZM247.361 59v12.333l5.859-5.858-5.859 5.858h12.334-12.334l5.859 5.859-5.859-5.859v12.334-12.334l-5.858 5.859 5.858-5.859h-12.333 12.333l-5.858-5.858 5.858 5.858V59Z" fill="none" stroke="#000" stroke-width="2.67"/><path d="M180.764 188.855c15.064-15.695 38.278-22.433 60.401-15.421a58.957 58.957 0 0 1 33.913 27.909 58.812 58.812 0 0 1 27.99 22.614c17.865 27.199 10.287 63.785-16.911 81.649a58.958 58.958 0 0 1-32.015 9.679v-.021H143.264v.021c-19.831 0-35.907-16.076-35.907-35.907 0-2.819.332-5.62.983-8.346a58.965 58.965 0 0 1-.241-52.803c13.416-27.1 44.874-39.335 72.665-29.374Zm-56.407 81.82c-1.358 2.847-2.263 5.549-2.263 8.703 0 11.439 9.073 20.759 20.415 21.156h112.302a44.213 44.213 0 0 0 23.253-7.248c20.399-13.398 26.083-40.838 12.684-61.237-11.797-17.961-33.39-18.245-44.158-21.412-5.639-1.659-17.083-4.644-16.217-8.423.702-3.062 15.412-4.83 23.202-4.855a44.218 44.218 0 0 0-16.863-9.874c-23.265-7.374-48.14 5.528-55.514 28.793-1.356 4.276-1.786 9.59-4.598 11.939-2.812 2.35-10.697 4.889-12.273 2.156-1.576-2.732 1.012-12.847 2.819-18.549a59.26 59.26 0 0 1 4.409-10.373c-19.714-4.894-40.863 4.365-50.246 23.318a44.218 44.218 0 0 0 3.462 45.062l-.414.844Z"/><path d="M136.63 270.027c0 12.062 9.778 21.84 21.84 21.84 2.894 0 5.758-.575 8.428-1.691l-2.107-5.038a16.371 16.371 0 0 1-6.321 1.269c-9.046 0-16.38-7.334-16.38-16.38h-5.46ZM246.59 286.357a21.816 21.816 0 0 0 5.737 2.461c11.643 3.12 23.629-3.8 26.749-15.444.541-2.02.79-4.108.737-6.199l-5.458.137a16.388 16.388 0 0 1-.553 4.649c-2.34 8.733-11.329 13.923-20.062 11.583a16.396 16.396 0 0 1-4.303-1.846l-2.847 4.659Z"/></svg>