<svg width="2134" height="2134" xmlns="http://www.w3.org/2000/svg" xml:space="preserve" fill-rule="evenodd" clip-rule="evenodd" stroke-linecap="round" stroke-linejoin="round" stroke-miterlimit="1.5"><circle cx="1066" cy="1066" r="375" fill="none" stroke="#000" stroke-width="116.67"/><path d="M1443.78 1084.06c72.1-75.12 183.22-107.378 289.11-73.81a282.176 282.176 0 0 1 162.33 133.58c53.32 20.63 100.65 57.51 133.97 108.25 85.52 130.18 49.24 305.3-80.94 390.82a282.16 282.16 0 0 1-153.24 46.32v-.1h-530.73v.1C1169.36 1689.22 1067 1474 1115 1441c45.45-31.25 106.38-43.4 171-111 67.58-70.7 115.54-188.57 157.78-245.94Zm17.22 40.71c16.77 185.51-236 289.23-264 345.23-24.49 48.97 10 125 63.67 148.62h537.54c39.59-.92 78.16-12.93 111.3-34.7 97.64-64.13 124.85-195.47 60.71-293.11-56.46-85.97-159.82-87.33-211.36-102.49-26.99-7.94-81.77-22.23-77.62-40.32 3.36-14.65 73.77-23.12 111.06-23.23a211.702 211.702 0 0 0-80.72-47.27c-111.36-35.29-259.03 62.83-250.58 47.27Z"/><path d="M1758.86 1550.76c8.54 5.22 17.79 9.19 27.46 11.78 55.73 14.93 113.1-18.19 128.04-73.92 2.59-9.68 3.78-19.67 3.52-29.68l-26.12.66c.19 7.5-.7 15-2.65 22.25-11.2 41.8-54.23 66.64-96.03 55.44a78.38 78.38 0 0 1-20.59-8.83l-13.63 22.3Z"/><g fill="none" stroke="#000" stroke-width="116.67"><path d="M1066 216.104a.106.106 0 0 0-.1-.104h-.21c-.06 0-.11.047-.11.104v266.458c0 .058.05.105.11.105h.21c.05 0 .1-.047.1-.105V216.104ZM482.562 1066.42c.058 0 .105-.05.105-.11v-.21c0-.05-.047-.1-.105-.1H216.104a.106.106 0 0 0-.104.1v.21c0 .06.047.11.104.11h266.458ZM1065.58 1649.44c0-.06-.04-.11-.1-.11h-.21c-.06 0-.1.05-.1.11v266.46c0 .05.04.1.1.1h.21a.1.1 0 0 0 .1-.1v-266.46Z"/></g><g fill="none" stroke="#000" stroke-width="116.67"><path d="M1667.07 464.797a.105.105 0 0 0 0-.147l-.15-.147a.107.107 0 0 0-.15 0l-188.41 188.414a.105.105 0 0 0 0 .147l.14.148c.04.04.11.04.15 0l188.42-188.415ZM653.25 653.506a.104.104 0 0 0 .148 0l.147-.147a.103.103 0 0 0 0-.147L465.131 464.797a.106.106 0 0 0-.148 0l-.147.148a.103.103 0 0 0 0 .147L653.25 653.506ZM653.25 1478.02a.095.095 0 0 0 0-.14l-.147-.15a.105.105 0 0 0-.147 0l-188.415 188.41c-.04.04-.04.11 0 .15l.148.15c.04.04.106.04.147 0l188.414-188.42Z"/></g></svg>