<svg width="342" height="342" xmlns="http://www.w3.org/2000/svg" xml:space="preserve" fill-rule="evenodd" clip-rule="evenodd" stroke-linecap="round" stroke-linejoin="round" stroke-miterlimit="1.5"><path d="M111.619 18c-31.994 36.134-67.971 87.136-75.142 113.9-6.157 22.978 7.5 46.632 30.477 52.789 22.978 6.157 46.632-7.5 52.789-30.478 7.171-26.764-33.205-75.914-8.124-136.211ZM192.644 18c-20.794 23.486-44.178 56.636-48.84 74.032-4.001 14.935 4.875 30.309 19.81 34.311 14.935 4.002 30.309-4.875 34.311-19.81 4.661-17.396-21.583-49.342-5.281-88.533ZM267.619 86.584c-31.994 36.133-67.971 87.136-75.142 113.9-6.157 22.978 7.5 46.632 30.477 52.789 22.978 6.157 46.632-7.5 52.789-30.478 7.171-26.764-33.205-75.914-8.124-136.211ZM137.752 176.191c-19.529 22.056-41.489 53.188-45.867 69.525-3.758 14.026 4.578 28.464 18.604 32.222 14.026 3.759 28.464-4.577 32.222-18.603 4.378-16.337-20.268-46.339-4.959-83.144ZM317.281 20.121c-12.644 14.281-26.863 34.438-29.697 45.016-2.434 9.081 2.964 18.43 12.045 20.863s18.43-2.964 20.863-12.045c2.834-10.578-13.123-30.003-3.211-53.834ZM47.726 211.154c-16.588 18.735-35.242 45.179-38.96 59.056-3.192 11.913 3.888 24.177 15.802 27.37 11.914 3.192 24.178-3.889 27.37-15.803 3.718-13.877-17.217-39.36-4.212-70.623ZM187.836 268.764c-11.255 12.712-23.912 30.655-26.436 40.072-2.166 8.084 2.639 16.405 10.723 18.571 8.084 2.166 16.406-2.638 18.572-10.722 2.523-9.416-11.682-26.708-2.859-47.921Z" fill="none" stroke="#000" stroke-width="12"/></svg>