<svg width="342" height="342" xmlns="http://www.w3.org/2000/svg" xml:space="preserve" fill-rule="evenodd" clip-rule="evenodd" stroke-linejoin="round" stroke-miterlimit="2"><path d="M26.667 13.333C26.667 5.974 20.692 0 13.333 0S0 5.974 0 13.333v108.334C0 129.026 5.974 135 13.333 135s13.334-5.974 13.334-13.333V13.333ZM26.667 172.333c0-7.359-5.975-13.333-13.334-13.333S0 164.974 0 172.333v13.334C0 193.026 5.974 199 13.333 199s13.334-5.974 13.334-13.333v-13.334ZM341.333 155.667c0-7.359-5.974-13.334-13.333-13.334s-13.333 5.975-13.333 13.334V169c0 7.359 5.974 13.333 13.333 13.333s13.333-5.974 13.333-13.333v-13.333Z"/><path d="M13.333 0C5.974 0 0 5.974 0 13.333s5.974 13.334 13.333 13.334h108.334c7.359 0 13.333-5.975 13.333-13.334S129.026 0 121.667 0H13.333ZM314.667 328c0 7.359 5.974 13.333 13.333 13.333s13.333-5.974 13.333-13.333V219.667c0-7.359-5.974-13.334-13.333-13.334s-13.333 5.975-13.333 13.334V328Z"/><path d="M328 341.333c7.359 0 13.333-5.974 13.333-13.333s-5.974-13.333-13.333-13.333H219.667c-7.359 0-13.334 5.974-13.334 13.333s5.975 13.333 13.334 13.333H328ZM239.012 102.321a96.656 96.656 0 0 0-68.345-28.31c-53.346 0-96.656 43.31-96.656 96.656 0 53.345 43.31 96.655 96.656 96.655 53.381 0 96.655-43.274 96.655-96.655h-24.164c0 40.036-32.455 72.491-72.491 72.491-40.01 0-72.492-32.482-72.492-72.491 0-40.01 32.482-72.492 72.492-72.492a72.494 72.494 0 0 1 51.259 21.232l17.086-17.086Z"/><path d="m248.776 144.775-49.381-21.094 55.804-32.218-6.423 53.312Z"/></svg>