<svg width="342" height="342" xmlns="http://www.w3.org/2000/svg" xml:space="preserve" fill-rule="evenodd" clip-rule="evenodd" stroke-linejoin="round" stroke-miterlimit="2"><path d="M26.667 13.333C26.667 5.974 20.692 0 13.333 0S0 5.974 0 13.333v108.334C0 129.026 5.974 135 13.333 135s13.334-5.974 13.334-13.333V13.333ZM26.667 172.333c0-7.359-5.975-13.333-13.334-13.333S0 164.974 0 172.333v13.334C0 193.026 5.974 199 13.333 199s13.334-5.974 13.334-13.333v-13.334ZM341.333 155.667c0-7.359-5.974-13.334-13.333-13.334s-13.333 5.975-13.333 13.334V169c0 7.359 5.974 13.333 13.333 13.333s13.333-5.974 13.333-13.333v-13.333Z"/><path d="M13.333 0C5.974 0 0 5.974 0 13.333s5.974 13.334 13.333 13.334h108.334c7.359 0 13.333-5.975 13.333-13.334S129.026 0 121.667 0H13.333ZM314.667 328c0 7.359 5.974 13.333 13.333 13.333s13.333-5.974 13.333-13.333V219.667c0-7.359-5.974-13.334-13.333-13.334s-13.333 5.975-13.333 13.334V328Z"/><path d="M328 341.333c7.359 0 13.333-5.974 13.333-13.333s-5.974-13.333-13.333-13.333H219.667c-7.359 0-13.334 5.974-13.334 13.333s5.975 13.333 13.334 13.333H328ZM180.253 69.487a101.329 101.329 0 0 0-19.84 0l-2.054 18.147a83.614 83.614 0 0 0-15.856 3.908l-10.252-15.114a101.354 101.354 0 0 0-17.567 9.22l6.615 17.023a83.48 83.48 0 0 0-12.224 10.83l-16.102-8.619a101.42 101.42 0 0 0-11.27 16.328l13.768 11.999a83.67 83.67 0 0 0-5.791 15.269l-18.262-.148a101.294 101.294 0 0 0-2.392 19.695l17.768 4.227a83.531 83.531 0 0 0 1.968 16.211l-16.24 8.356a101.379 101.379 0 0 0 7.036 18.55l17.696-4.514a83.522 83.522 0 0 0 9.277 13.439L96.034 239.24a101.291 101.291 0 0 0 14.851 13.156l13.571-12.221a83.667 83.667 0 0 0 14.46 7.589l-2.349 18.111a101.37 101.37 0 0 0 19.264 4.749l6.337-17.129c5.431.533 10.9.533 16.331 0l6.337 17.129a101.34 101.34 0 0 0 19.263-4.749l-2.349-18.111a83.595 83.595 0 0 0 14.46-7.589l13.572 12.221a101.335 101.335 0 0 0 14.85-13.156l-10.496-14.946a83.58 83.58 0 0 0 9.276-13.439l17.697 4.514a101.303 101.303 0 0 0 7.035-18.55l-16.24-8.356a83.532 83.532 0 0 0 1.969-16.211l17.767-4.227a101.37 101.37 0 0 0-2.391-19.695l-18.263.148a83.524 83.524 0 0 0-5.791-15.269l13.769-11.999a101.362 101.362 0 0 0-11.271-16.328l-16.102 8.619a83.524 83.524 0 0 0-12.223-10.83l6.615-17.023a101.327 101.327 0 0 0-17.568-9.22l-10.252 15.114a83.595 83.595 0 0 0-15.856-3.908l-2.054-18.147Zm-9.92 42.019c32.468 0 58.827 26.36 58.827 58.827 0 32.468-26.359 58.827-58.827 58.827-32.467 0-58.827-26.359-58.827-58.827 0-32.467 26.36-58.827 58.827-58.827Z"/></svg>