<svg width="342" height="342" xmlns="http://www.w3.org/2000/svg" xml:space="preserve" fill-rule="evenodd" clip-rule="evenodd" stroke-linecap="round" stroke-linejoin="round" stroke-miterlimit="1.5"><path d="M119.479 194.303c4.821.907 9.757.775 14.808-.396a24.712 24.712 0 0 0 3.102 7.488c-7.241 4.516-12.271 10.801-15.091 18.856a48.056 48.056 0 0 0 4.118 4.118c8.054-2.82 14.339-7.85 18.855-15.091a24.7 24.7 0 0 0 7.489 3.101c-1.171 5.052-1.303 9.988-.396 14.808m11.939 0c.907-4.82.775-9.756-.396-14.808a24.684 24.684 0 0 0 7.488-3.101c4.516 7.241 10.801 12.271 18.856 15.091a48.2 48.2 0 0 0 4.118-4.118c-2.82-8.055-7.85-14.34-15.091-18.856a24.684 24.684 0 0 0 3.101-7.488c5.052 1.171 9.988 1.303 14.808.396m0-11.939c-4.82-.907-9.756-.775-14.808.396a24.7 24.7 0 0 0-3.101-7.489c7.241-4.516 12.271-10.801 15.091-18.855a48.056 48.056 0 0 0-4.118-4.118c-8.055 2.82-14.34 7.85-18.856 15.091a24.712 24.712 0 0 0-7.488-3.102c1.171-5.051 1.303-9.987.396-14.808m-11.939 0c-.907 4.821-.775 9.757.396 14.808a24.728 24.728 0 0 0-7.489 3.102c-4.516-7.241-10.801-12.271-18.855-15.091a47.913 47.913 0 0 0-4.118 4.118c2.82 8.054 7.85 14.339 15.091 18.855a24.728 24.728 0 0 0-3.102 7.489c-5.051-1.171-9.987-1.303-14.808-.396m38.854-4.641c5.856 0 10.61 4.755 10.61 10.61 0 5.856-4.754 10.61-10.61 10.61-5.855 0-10.61-4.754-10.61-10.61 0-5.855 4.755-10.61 10.61-10.61Z" fill="none" stroke="#000" stroke-width="5.33"/><circle cx="139.749" cy="188.333" r="2.077" fill="none" stroke="#000" stroke-width="2.67"/><circle cx="113.294" cy="188.333" r="2.077" fill="none" stroke="#000" stroke-width="2.67"/><circle cx="203.33" cy="188.333" r="2.077" fill="none" stroke="#000" stroke-width="2.67"/><path d="M160.389 143.315a2.078 2.078 0 0 1-4.154 0 2.078 2.078 0 0 1 4.154 0ZM160.389 233.351a2.078 2.078 0 0 1-2.077 2.077 2.078 2.078 0 0 1-2.077-2.077c0-1.146.931-2.077 2.077-2.077s2.077.931 2.077 2.077ZM141.826 171.826l7.116 2.372-4.744 4.744-2.372-7.116ZM130.004 175.979l7.488.45-3.355 5.81-4.133-6.26ZM130.004 200.77l4.133-6.26 3.355 5.811-7.488.449ZM186.695 200.77l-7.488-.449 3.355-5.811 4.133 6.26ZM186.695 175.979l-4.133 6.26-3.355-5.81 7.488-.45Z" fill="none" stroke="#000" stroke-width="2.67"/><path d="m141.826 171.826 7.116 2.372-4.744 4.744-2.372-7.116ZM130.004 175.979l7.488.45-3.355 5.81-4.133-6.26ZM130.004 200.77l4.133-6.26 3.355 5.811-7.488.449Z" fill="none" stroke="#000" stroke-width="2.67"/><path d="m141.826 171.826 7.116 2.372-4.744 4.744-2.372-7.116ZM130.004 175.979l7.488.45-3.355 5.81-4.133-6.26ZM130.004 200.77l4.133-6.26 3.355 5.811-7.488.449ZM170.814 159.685l-.449 7.488-5.811-3.355 6.26-4.133ZM146.023 159.685l6.26 4.133-5.811 3.355-.449-7.488ZM145.938 217.015l.449-7.488 5.811 3.355-6.26 4.133ZM170.729 217.015l-6.26-4.133 5.81-3.355.45 7.488ZM186.695 200.77l-7.488-.449 3.355-5.811 4.133 6.26ZM186.695 175.979l-4.133 6.26-3.355-5.81 7.488-.45ZM174.841 171.826l-2.372 7.116-4.745-4.744 7.117-2.372ZM174.841 204.841l-7.117-2.372 4.745-4.745 2.372 7.117ZM141.826 204.841l2.372-7.117 4.744 4.745-7.116 2.372Z" fill="none" stroke="#000" stroke-width="2.67"/><circle cx="176.918" cy="188.333" r="2.077" fill="none" stroke="#000" stroke-width="2.67"/><circle cx="158.333" cy="169.749" r="2.077" fill="none" stroke="#000" stroke-width="2.67"/><circle cx="158.333" cy="206.918" r="2.077" fill="none" stroke="#000" stroke-width="2.67"/><path d="M119.479 194.303a7.636 7.636 0 0 1-4.811 1.698 7.672 7.672 0 0 1-7.668-7.668 7.672 7.672 0 0 1 7.668-7.668c1.821 0 3.495.637 4.811 1.699M197.187 182.364a7.637 7.637 0 0 1 4.812-1.699 7.672 7.672 0 0 1 7.668 7.668 7.672 7.672 0 0 1-7.668 7.668 7.636 7.636 0 0 1-4.812-1.698M152.364 149.479a7.636 7.636 0 0 1-1.699-4.811 7.672 7.672 0 0 1 7.668-7.668 7.672 7.672 0 0 1 7.668 7.668 7.636 7.636 0 0 1-1.698 4.811M164.303 227.187a7.636 7.636 0 0 1 1.698 4.812 7.672 7.672 0 0 1-7.668 7.668 7.672 7.672 0 0 1-7.668-7.668c0-1.822.637-3.496 1.699-4.812" fill="none" stroke="#000" stroke-width="5.33"/><path d="M119.479 194.303a7.636 7.636 0 0 1-4.811 1.698 7.672 7.672 0 0 1-7.668-7.668 7.672 7.672 0 0 1 7.668-7.668c1.821 0 3.495.637 4.811 1.699" fill="none" stroke="#000" stroke-width="5.33"/><path d="m114.997 177.151 1.757 3.514h-3.514l1.757-3.514ZM114.997 199.516l-1.757-3.515h3.514l-1.757 3.515ZM201.67 177.151l1.757 3.514h-3.515l1.758-3.514ZM201.67 199.516l-1.758-3.515h3.515l-1.757 3.515ZM169.516 144.997l-3.515 1.757v-3.514l3.515 1.757ZM147.151 144.997l3.514-1.757v3.514l-3.514-1.757ZM169.516 231.67l-3.515 1.757v-3.515l3.515 1.758ZM147.151 231.67l3.514-1.758v3.515l-3.514-1.757ZM77.873 102.45c2.51-.191 4.938-.912 7.285-2.162a12.673 12.673 0 0 0 2.532 3.298c-2.989 3.199-4.647 6.982-4.975 11.347.832.55 1.696 1.049 2.587 1.494 3.617-2.467 6.064-5.794 7.34-9.981a12.67 12.67 0 0 0 4.122.542c.091 2.659.681 5.122 1.77 7.39m5.916-1.585c-.191-2.509-.912-4.937-2.162-7.285a12.647 12.647 0 0 0 3.298-2.531c3.199 2.988 6.982 4.647 11.347 4.975a24.636 24.636 0 0 0 1.494-2.588c-2.467-3.616-5.794-6.063-9.981-7.339.406-1.335.59-2.728.542-4.123 2.659-.09 5.122-.68 7.39-1.77m-1.585-5.915c-2.509.19-4.937.911-7.285 2.162a12.652 12.652 0 0 0-2.531-3.299c2.988-3.199 4.647-6.981 4.975-11.346a24.636 24.636 0 0 0-2.588-1.494c-3.616 2.466-6.063 5.794-7.339 9.981a12.674 12.674 0 0 0-4.123-.543c-.09-2.658-.68-5.121-1.77-7.39m-5.915 1.585c.19 2.51.911 4.938 2.162 7.285a12.677 12.677 0 0 0-3.299 2.532c-3.199-2.989-6.981-4.647-11.346-4.975a24.724 24.724 0 0 0-1.494 2.587c2.466 3.617 5.794 6.064 9.981 7.34a12.671 12.671 0 0 0-.543 4.122c-2.658.091-5.121.681-7.39 1.77m18.637-7.458a5.446 5.446 0 0 1 6.666 3.849 5.446 5.446 0 0 1-3.849 6.666 5.446 5.446 0 0 1-6.666-3.849 5.446 5.446 0 0 1 3.849-6.666Z" fill="none" stroke="#000" stroke-width="2.67"/><path d="M86.849 95.772a1.066 1.066 0 1 1 .551 2.06 1.066 1.066 0 0 1-.551-2.06ZM85.962 88.345l3.841.231-1.721 2.981-2.12-3.212ZM102.321 83.962l-.23 3.841-2.981-1.721 3.211-2.12ZM106.705 100.321l-3.842-.23 1.721-2.981 2.121 3.211ZM90.345 104.705l.231-3.842 2.981 1.721-3.212 2.121ZM105.266 90.837a1.066 1.066 0 1 1 .551 2.06 1.066 1.066 0 0 1-.551-2.06ZM93.59 84.096a1.065 1.065 0 1 1 .552 2.057 1.065 1.065 0 0 1-.552-2.057ZM98.525 102.513a1.066 1.066 0 1 1 .551 2.06 1.066 1.066 0 0 1-.551-2.06Z" fill="none" stroke="#000" stroke-width=".67"/><path d="M77.873 102.45a3.936 3.936 0 0 1-6.976-1.301 3.936 3.936 0 0 1 2.782-4.818 3.918 3.918 0 0 1 2.609.203M114.793 86.217a3.935 3.935 0 0 1 6.976 1.301 3.934 3.934 0 0 1-5.391 4.614M88.217 75.873a3.919 3.919 0 0 1-1.481-2.158 3.935 3.935 0 1 1 7.396.573M104.45 112.793a3.935 3.935 0 1 1-6.119 4.195 3.92 3.92 0 0 1 .203-2.61" fill="none" stroke="#000" stroke-width="2.67"/><path d="M77.873 102.45a3.936 3.936 0 0 1-6.976-1.301 3.936 3.936 0 0 1 2.782-4.818 3.918 3.918 0 0 1 2.609.203" fill="none" stroke="#000" stroke-width="2.67"/><path d="m73.375 94.546 1.337 1.508-1.741.467.404-1.975ZM76.345 105.628l-1.338-1.508 1.742-.467-.404 1.975ZM116.322 83.038l1.337 1.509-1.741.466.404-1.975ZM119.292 94.121l-1.338-1.509 1.742-.466-.404 1.975ZM96.121 71.375l-1.509 1.337-.466-1.741 1.975.404ZM85.038 74.345l1.509-1.338.466 1.742-1.975-.404ZM107.628 114.322l-1.508 1.337-.467-1.741 1.975.404ZM96.546 117.292l1.508-1.338.467 1.742-1.975-.404ZM164.2 56.261c1.004 1.469 2.303 2.701 3.899 3.696a8.96 8.96 0 0 0-1.125 2.716c-3.015-.699-5.917-.377-8.706.965a17.716 17.716 0 0 0 0 2.112c2.789 1.343 5.691 1.664 8.706.966a8.955 8.955 0 0 0 1.125 2.715c-1.596.995-2.895 2.227-3.899 3.696m3.061 3.062c1.469-1.004 2.701-2.303 3.696-3.899a8.96 8.96 0 0 0 2.716 1.125c-.699 3.015-.377 5.917.965 8.705.704.043 1.409.043 2.112 0 1.343-2.788 1.664-5.69.966-8.705a8.955 8.955 0 0 0 2.715-1.125c.995 1.596 2.227 2.895 3.696 3.899m3.062-3.062c-1.004-1.469-2.303-2.701-3.899-3.696a8.955 8.955 0 0 0 1.125-2.715c3.015.698 5.917.377 8.705-.966.043-.703.043-1.408 0-2.112-2.788-1.342-5.69-1.664-8.705-.965a8.96 8.96 0 0 0-1.125-2.716c1.596-.995 2.895-2.227 3.899-3.696m-3.062-3.061c-1.469 1.004-2.701 2.303-3.696 3.899a8.955 8.955 0 0 0-2.715-1.125c.698-3.015.377-5.917-.966-8.706a17.716 17.716 0 0 0-2.112 0c-1.342 2.789-1.664 5.691-.965 8.706a8.96 8.96 0 0 0-2.716 1.125c-.995-1.596-2.227-2.895-3.696-3.899m11.154 8.774a3.848 3.848 0 0 1-5.441 5.441 3.848 3.848 0 0 1 5.441-5.441Z" fill="none" stroke="#000" stroke-width="2.67"/><path d="M171.461 59.396a.753.753 0 1 1-1.065 1.065.753.753 0 0 1 1.065-1.065ZM175.694 56.228l1.217 2.433h-2.433l1.216-2.433ZM184.161 64.694l-2.434 1.217v-2.433l2.434 1.216ZM175.694 73.161l-1.216-2.434h2.433l-1.217 2.434ZM167.228 64.694l2.433-1.216v2.433l-2.433-1.217ZM180.993 68.928a.753.753 0 1 1-1.065 1.065.753.753 0 0 1 1.065-1.065ZM180.993 59.396a.753.753 0 1 1-1.065 1.065.753.753 0 0 1 1.065-1.065ZM171.461 68.928a.753.753 0 1 1-1.065 1.065.753.753 0 0 1 1.065-1.065Z" fill="none" stroke="#000" stroke-width=".67"/><path d="M164.2 56.261a2.783 2.783 0 0 1-1.67-4.731 2.783 2.783 0 0 1 4.731 1.67M187.189 73.127a2.781 2.781 0 1 1-3.062 3.062M184.127 53.2a2.783 2.783 0 0 1 4.731-1.67 2.781 2.781 0 0 1-1.669 4.731M167.261 76.189a2.781 2.781 0 1 1-3.061-3.062" fill="none" stroke="#000" stroke-width="2.67"/><path d="M164.2 56.261a2.783 2.783 0 0 1-1.67-4.731 2.783 2.783 0 0 1 4.731 1.67" fill="none" stroke="#000" stroke-width="2.67"/><path d="m167.449 50.714-.451 1.351-.901-.901 1.352-.45ZM161.714 56.449l.45-1.352.901.901-1.351.451ZM189.675 72.94l-.45 1.352-.902-.902 1.352-.45ZM183.94 78.675l.45-1.352.902.902-1.352.45ZM189.675 56.449l-1.352-.451.902-.901.45 1.352ZM183.94 50.714l1.352.45-.902.901-.45-1.351ZM167.449 78.675l-1.352-.45.901-.902.451 1.352ZM161.714 72.94l1.351.45-.901.902-.45-1.352Z" fill="none" stroke="#000" stroke-width="2.67"/><path d="m193.598 270.181-6.389 2.646m9.944.909-2.646 6.388m7.674-6.388 2.646 6.388m.909-9.943 6.388 2.646m-6.388-7.674 6.388-2.646m-9.943-.909 2.646-6.389m-7.674 6.389-2.646-6.389m-.909 9.944-6.389-2.646m29.124 5.16h-13.918m9.037 11.785-9.843-9.843m-1.942 14.724v-13.918m-11.785 9.037 9.842-9.843M183 267.667h13.919m-9.037-11.785 9.842 9.842M199.667 251v13.919m1.942.805 9.843-9.842" fill="none" stroke="#000" stroke-width="2.27"/><circle cx="199.667" cy="267.667" r="2.748" fill="none" stroke="#000" stroke-width="2.27"/><circle cx="199.667" cy="267.667" r="6.568" fill="none" stroke="#000" stroke-width="2.27"/><path d="m60.154 306.809-6.856-.902m8.157 5.759-5.486 4.209m9.84-1.696-.902 6.856m5.759-8.157 4.209 5.486m-1.696-9.84 6.856.903m-8.157-5.759 5.486-4.21m-9.84 1.696.903-6.856m-5.759 8.157-4.21-5.486M81.1 316l-12.054-6.959m1.934 14.724-3.602-13.444M58.333 322.1l6.96-12.054m-14.725 1.934 13.445-3.602m-11.78-9.045 12.054 6.96m-1.934-14.725 3.603 13.445M75 293.233l-6.959 12.054m1.28 1.669 13.444-3.603M68.041 305.287a2.749 2.749 0 0 1-2.748 4.759 2.748 2.748 0 0 1 2.748-4.759Z" fill="none" stroke="#000" stroke-width="2.27"/><path d="M69.951 301.979a6.571 6.571 0 0 1 2.404 8.972 6.572 6.572 0 0 1-8.972 2.404 6.57 6.57 0 0 1-2.404-8.972 6.57 6.57 0 0 1 8.972-2.404ZM17.598 189.847l-6.389 2.646m9.944.909-2.646 6.389m7.674-6.389 2.646 6.389m.909-9.944 6.388 2.646m-6.388-7.674 6.388-2.646m-9.943-.909 2.646-6.388m-7.674 6.388-2.646-6.388m-.909 9.943-6.389-2.646m29.124 5.16H26.415m9.037 11.785-9.843-9.842M23.667 204v-13.919m-11.785 9.037 9.842-9.842M7 187.333h13.919m-9.037-11.785 9.842 9.843m1.943-14.724v13.918m1.942.806 9.843-9.843" fill="none" stroke="#000" stroke-width="2.27"/><circle cx="23.667" cy="187.333" r="2.748" fill="none" stroke="#000" stroke-width="2.27"/><circle cx="23.667" cy="187.333" r="6.568" fill="none" stroke="#000" stroke-width="2.27"/><path d="m27.147 42.125-3.706 1.534m5.768.528-1.535 3.705m4.451-3.705 1.534 3.705m.528-5.767 3.705 1.534m-3.705-4.45 3.705-1.535m-5.767-.527 1.534-3.706m-4.45 3.706-1.535-3.706m-.527 5.768-3.706-1.535m16.892 2.993h-8.072m5.241 6.835-5.709-5.709m-1.126 8.54v-8.072m-6.836 5.241 5.709-5.709M21 40.667h8.073m-5.242-6.836 5.709 5.709M30.667 31v8.073m1.126.467 5.709-5.709" fill="none" stroke="#000" stroke-width="1.07" stroke-linejoin="bevel"/><circle cx="30.667" cy="40.667" r="1.594" fill="none" stroke="#000" stroke-width="1.07" stroke-linejoin="bevel"/><circle cx="30.667" cy="40.667" r="3.809" fill="none" stroke="#000" stroke-width="1.07" stroke-linejoin="bevel"/><path d="m247.154 189.224-6.856-.903m8.157 5.759-5.486 4.21m9.84-1.696-.902 6.856m5.759-8.157 4.209 5.486m-1.696-9.84 6.856.902m-8.157-5.759 5.486-4.209m-9.84 1.696.903-6.856m-5.759 8.157-4.21-5.486m22.642 19.031-12.054-6.96m1.934 14.725-3.602-13.445m-9.045 11.78 6.96-12.054m-14.725 1.934 13.445-3.603m-11.78-9.044 12.054 6.959m-1.934-14.724 3.603 13.444M262 175.648l-6.959 12.053m1.28 1.669 13.444-3.602" fill="none" stroke="#000" stroke-width="2.27"/><circle cx="253.667" cy="190.081" r="2.748" fill="none" stroke="#000" stroke-width="2.27"/><circle cx="253.667" cy="190.081" r="6.568" fill="none" stroke="#000" stroke-width="2.27"/><path d="m305.598 70.181-6.389 2.646m9.944.909-2.646 6.388m7.674-6.388 2.646 6.388m.909-9.943 6.388 2.646m-6.388-7.674 6.388-2.646m-9.943-.909 2.646-6.389m-7.674 6.389-2.646-6.389m-.909 9.944-6.389-2.646m29.124 5.16h-13.918m9.037 11.785-9.843-9.843m-1.942 14.724V70.415m-11.785 9.037 9.842-9.843M295 67.667h13.919m-9.037-11.785 9.842 9.842M311.667 51v13.919m1.942.805 9.843-9.842" fill="none" stroke="#000" stroke-width="2.27"/><circle cx="311.667" cy="67.667" r="2.748" fill="none" stroke="#000" stroke-width="2.27"/><path d="m264.552 125.151-7.661 9.983m16.498-7.615 1.643 12.476m6.281-17.051 9.983 7.66m-7.615-16.498 12.476-1.642m-17.051-6.281 7.661-9.983m-16.498 7.615-1.643-12.476m-6.281 17.05-9.983-7.66m7.615 16.498-12.476 1.642m50.595-18.368-21.936 12.665m24.966 10.351-24.467-6.556m10.335 24.973-12.664-21.936m-10.351 24.966 6.556-24.468m-24.973 10.336 21.936-12.665m-24.966-10.35L267 114.373M256.664 89.4l12.665 21.936m3.794-.499 6.556-24.467M269.329 111.336a5.003 5.003 0 0 1 6.831 1.83 5.004 5.004 0 0 1-1.83 6.832 5.004 5.004 0 0 1-6.832-1.831 5.002 5.002 0 0 1 1.831-6.831Z" fill="none" stroke="#000" stroke-width="2.27"/><path d="M265.853 105.315c5.713-3.298 13.029-1.338 16.327 4.375 3.299 5.713 1.338 13.029-4.375 16.328-5.713 3.298-13.029 1.338-16.327-4.375-3.298-5.713-1.338-13.029 4.375-16.328Z" fill="none" stroke="#000" stroke-width="2.27"/><circle cx="311.667" cy="67.667" r="6.568" fill="none" stroke="#000" stroke-width="2.27"/><path d="m229.598 29.181-6.389 2.646m9.944.909-2.646 6.388m7.674-6.388 2.646 6.388m.909-9.943 6.388 2.646m-6.388-7.674 6.388-2.646m-9.943-.909 2.646-6.389m-7.674 6.389-2.646-6.389m-.909 9.944-6.389-2.646m29.124 5.16h-13.918m9.037 11.785-9.843-9.843m-1.942 14.724V29.415m-11.785 9.037 9.842-9.843M219 26.667h13.919m-9.037-11.785 9.842 9.842M235.667 10v13.919m1.942.805 9.843-9.842" fill="none" stroke="#000" stroke-width="2.27"/><circle cx="235.667" cy="26.667" r="2.748" fill="none" stroke="#000" stroke-width="2.27"/><circle cx="235.667" cy="26.667" r="6.568" fill="none" stroke="#000" stroke-width="2.27"/><path d="m271.058 312.505-8.009 6.146m14.366-2.476-1.318 10.009m8.408-11.909 6.146 8.01m-2.476-14.366 10.009 1.317m-11.909-8.408 8.01-6.145m-14.366 2.475 1.317-10.009m-8.408 11.909-6.145-8.009m2.475 14.366-10.009-1.318m43.022-3.728-19.629 5.259m17.198 13.205-17.599-10.161m2.824 21.499-5.26-19.629M266.5 327.74l10.161-17.599m-21.499 2.824 19.629-5.26M257.593 294.5l17.6 10.161m-2.824-21.499 5.259 19.629m3.044.402 10.161-17.6" fill="none" stroke="#000" stroke-width="2.27"/><circle cx="278.667" cy="306.667" r="4.012" fill="none" stroke="#000" stroke-width="2.27"/><circle cx="278.667" cy="306.667" r="9.589" fill="none" stroke="#000" stroke-width="2.27"/><path d="M273.079 255.14a8.821 8.821 0 0 0 3.654-.098c.152.654.41 1.278.766 1.848-1.787 1.114-3.028 2.665-3.724 4.652.318.359.657.699 1.016 1.017 1.987-.696 3.538-1.938 4.653-3.724a6.07 6.07 0 0 0 1.847.765 8.804 8.804 0 0 0-.097 3.654m2.946 0a8.821 8.821 0 0 0-.098-3.654 6.086 6.086 0 0 0 1.848-.765c1.114 1.786 2.665 3.028 4.652 3.724.359-.318.699-.658 1.017-1.017-.696-1.987-1.938-3.538-3.724-4.652.355-.57.614-1.194.765-1.848a8.821 8.821 0 0 0 3.654.098m0-2.946a8.804 8.804 0 0 0-3.654.097 6.07 6.07 0 0 0-.765-1.847c1.786-1.115 3.028-2.666 3.724-4.653a11.891 11.891 0 0 0-1.017-1.016c-1.987.696-3.538 1.937-4.652 3.724a6.088 6.088 0 0 0-1.848-.766 8.821 8.821 0 0 0 .098-3.654m-2.946 0a8.804 8.804 0 0 0 .097 3.654 6.072 6.072 0 0 0-1.847.766c-1.115-1.787-2.666-3.028-4.653-3.724a11.88 11.88 0 0 0-1.016 1.016c.696 1.987 1.937 3.538 3.724 4.653a6.072 6.072 0 0 0-.766 1.847 8.804 8.804 0 0 0-3.654-.097m9.588-1.145a2.62 2.62 0 0 1 0 5.236 2.62 2.62 0 0 1 0-5.236Z" fill="none" stroke="#000" stroke-width="2.4"/><circle cx="278.081" cy="253.667" r=".512" fill="none" stroke="#000" stroke-width="2.4"/><circle cx="271.553" cy="253.667" r=".512" fill="none" stroke="#000" stroke-width="2.4"/><circle cx="293.77" cy="253.667" r=".512" fill="none" stroke="#000" stroke-width="2.4"/><path d="M283.174 242.558a.513.513 0 1 1-1.027 0 .513.513 0 0 1 1.027 0ZM283.174 264.775a.513.513 0 1 1-1.025-.001.513.513 0 0 1 1.025.001Z" fill="none" stroke="#000" stroke-width="2.4"/><circle cx="287.252" cy="253.667" r=".512" fill="none" stroke="#000" stroke-width="2.4"/><circle cx="282.667" cy="249.081" r=".512" fill="none" stroke="#000" stroke-width="2.4"/><circle cx="282.667" cy="258.252" r=".512" fill="none" stroke="#000" stroke-width="2.4"/><path d="M273.079 255.14a1.893 1.893 0 1 1-1.187-3.365c.45 0 .863.157 1.187.419M292.254 252.194a1.892 1.892 0 1 1 0 2.946M281.194 244.079a1.893 1.893 0 1 1 2.946 0M284.14 263.254a1.893 1.893 0 1 1-2.946 0" fill="none" stroke="#000" stroke-width="2.4"/><path d="M273.079 255.14a1.893 1.893 0 1 1-1.187-3.365c.45 0 .863.157 1.187.419" fill="none" stroke="#000" stroke-width="2.4"/><path d="m271.973 250.907.434.868h-.867l.433-.868ZM271.973 256.426l-.433-.867h.867l-.434.867ZM293.36 250.907l.434.868h-.868l.434-.868ZM293.36 256.426l-.434-.867h.868l-.434.867ZM285.426 242.973l-.867.434v-.867l.867.433ZM279.907 242.973l.868-.433v.867l-.868-.434ZM285.426 264.36l-.867.434v-.868l.867.434ZM279.907 264.36l.868-.434v.868l-.868-.434ZM106.334 275.239c1.149.986 2.488 1.712 4.019 2.179a7.6 7.6 0 0 0-.327 2.48c-2.632.089-4.946.993-6.942 2.71.12.588.275 1.167.465 1.736 2.588.489 5.043.115 7.367-1.124.395.741.91 1.412 1.523 1.985-1.092 1.169-1.889 2.468-2.391 3.896m3.191 1.842c.986-1.149 1.712-2.488 2.179-4.019a7.6 7.6 0 0 0 2.48.327c.089 2.632.993 4.946 2.71 6.942.588-.12 1.167-.275 1.736-.465.489-2.587.115-5.043-1.124-7.367a7.633 7.633 0 0 0 1.985-1.523c1.169 1.092 2.468 1.889 3.896 2.391m1.842-3.191c-1.149-.986-2.488-1.712-4.019-2.179a7.6 7.6 0 0 0 .327-2.48c2.632-.089 4.946-.993 6.942-2.71a14.857 14.857 0 0 0-.465-1.736c-2.587-.489-5.043-.115-7.367 1.124a7.633 7.633 0 0 0-1.523-1.985c1.092-1.169 1.889-2.468 2.391-3.896m-3.191-1.842c-.986 1.149-1.712 2.488-2.179 4.019a7.6 7.6 0 0 0-2.48-.327c-.089-2.632-.993-4.946-2.71-6.942-.588.12-1.167.275-1.736.465-.489 2.588-.115 5.043 1.124 7.367a7.633 7.633 0 0 0-1.985 1.523c-1.169-1.092-2.468-1.889-3.896-2.391m11.1 4.755a3.277 3.277 0 0 1 1.198 4.473 3.277 3.277 0 0 1-4.473 1.198 3.277 3.277 0 0 1-1.198-4.473 3.277 3.277 0 0 1 4.473-1.198ZM112.992 276.216a.641.641 0 1 1-.64 1.11.641.641 0 0 1 .64-1.11ZM105.923 272.134a.642.642 0 1 1-.644 1.11.642.642 0 0 1 .644-1.11ZM129.984 286.026a.64.64 0 1 1-.642 1.11.64.64 0 0 1 .642-1.11ZM125.134 267.925a.642.642 0 1 1-1.111-.643.642.642 0 0 1 1.111.643ZM111.242 291.986a.641.641 0 1 1-1.11-.641.641.641 0 0 1 1.11.641ZM122.925 281.951a.64.64 0 1 1-.639 1.11.64.64 0 0 1 .639-1.11ZM120.826 274.117a.64.64 0 1 1-.639 1.11.64.64 0 0 1 .639-1.11ZM115.092 284.05a.64.64 0 1 1-.642 1.11.64.64 0 0 1 .642-1.11Z" fill="none" stroke="#000" stroke-width="2.4"/><path d="M106.334 275.239a2.368 2.368 0 0 1-2.414-3.521 2.368 2.368 0 0 1 4.256.33M128.943 284.038a2.368 2.368 0 0 1 2.414 3.521 2.368 2.368 0 0 1-4.256-.33M122.038 268.334a2.368 2.368 0 0 1 3.521-2.414 2.368 2.368 0 0 1-.33 4.256M113.239 290.943a2.368 2.368 0 0 1-3.521 2.414 2.368 2.368 0 0 1 .33-4.256" fill="none" stroke="#000" stroke-width="2.4"/><path d="M106.334 275.239a2.368 2.368 0 0 1-2.414-3.521 2.368 2.368 0 0 1 4.256.33" fill="none" stroke="#000" stroke-width="2.4"/><path d="m107.783 269.964-.073 1.21-.939-.542 1.012-.668ZM104.332 275.941l.073-1.211.939.542-1.012.669ZM130.945 283.336l-.073 1.211-.939-.542 1.012-.669ZM127.494 289.313l.073-1.21.939.542-1.012.668ZM127.313 269.783l-1.21-.073.542-.939.668 1.012ZM121.336 266.332l1.211.073-.542.939-.669-1.012ZM113.941 292.945l-1.211-.073.542-.939.669 1.012ZM107.964 289.494l1.21.073-.542.939-.668-1.012ZM273.079 255.14a8.821 8.821 0 0 0 3.654-.098c.152.654.41 1.278.766 1.848-1.787 1.114-3.028 2.665-3.724 4.652.318.359.657.699 1.016 1.017 1.987-.696 3.538-1.938 4.653-3.724a6.07 6.07 0 0 0 1.847.765 8.804 8.804 0 0 0-.097 3.654m2.946 0a8.821 8.821 0 0 0-.098-3.654 6.086 6.086 0 0 0 1.848-.765c1.114 1.786 2.665 3.028 4.652 3.724.359-.318.699-.658 1.017-1.017-.696-1.987-1.938-3.538-3.724-4.652.355-.57.614-1.194.765-1.848a8.821 8.821 0 0 0 3.654.098m0-2.946a8.804 8.804 0 0 0-3.654.097 6.07 6.07 0 0 0-.765-1.847c1.786-1.115 3.028-2.666 3.724-4.653a11.891 11.891 0 0 0-1.017-1.016c-1.987.696-3.538 1.937-4.652 3.724a6.088 6.088 0 0 0-1.848-.766 8.821 8.821 0 0 0 .098-3.654m-2.946 0a8.804 8.804 0 0 0 .097 3.654 6.072 6.072 0 0 0-1.847.766c-1.115-1.787-2.666-3.028-4.653-3.724a11.88 11.88 0 0 0-1.016 1.016c.696 1.987 1.937 3.538 3.724 4.653a6.072 6.072 0 0 0-.766 1.847 8.804 8.804 0 0 0-3.654-.097m9.588-1.145a2.62 2.62 0 0 1 0 5.236 2.62 2.62 0 0 1 0-5.236ZM188.577 324.566a7.368 7.368 0 0 0 2.609-1.601c.383.411.832.755 1.328 1.02a7.305 7.305 0 0 0-.752 4.931c.38.128.768.232 1.162.312 1.149-1.337 1.754-2.886 1.814-4.647a5.094 5.094 0 0 0 1.66-.219 7.358 7.358 0 0 0 1.459 2.69m2.135-1.233a7.36 7.36 0 0 0-1.6-2.608 5.093 5.093 0 0 0 1.019-1.329 7.315 7.315 0 0 0 4.932.753c.127-.381.231-.769.311-1.162a7.309 7.309 0 0 0-4.647-1.815 5.1 5.1 0 0 0-.218-1.66 7.379 7.379 0 0 0 2.69-1.458m-1.233-2.136a7.388 7.388 0 0 0-2.609 1.6 5.094 5.094 0 0 0-1.328-1.019c.829-1.556 1.08-3.2.752-4.932a9.848 9.848 0 0 0-1.162-.311 7.313 7.313 0 0 0-1.814 4.647 5.098 5.098 0 0 0-1.66.219 7.35 7.35 0 0 0-1.459-2.69m-2.135 1.233a7.37 7.37 0 0 0 1.6 2.608 5.072 5.072 0 0 0-1.019 1.328c-1.556-.829-3.2-1.08-4.932-.752a9.953 9.953 0 0 0-.311 1.162c1.336 1.15 2.885 1.754 4.647 1.814a5.094 5.094 0 0 0 .218 1.66 7.396 7.396 0 0 0-2.69 1.459m6.472-4.843a2.192 2.192 0 1 1 2.191 3.798 2.192 2.192 0 0 1-2.191-3.798Z" fill="none" stroke="#000" stroke-width="2.4"/><circle cx="278.081" cy="253.667" r=".512" fill="none" stroke="#000" stroke-width="2.4"/><path d="M191.372 321.033a.428.428 0 1 1 .43.741.428.428 0 0 1-.43-.741Z" fill="none" stroke="#000" stroke-width="2.4"/><circle cx="271.553" cy="253.667" r=".512" fill="none" stroke="#000" stroke-width="2.4"/><path d="M186.64 323.765a.43.43 0 1 1 .429.744.43.43 0 0 1-.429-.744Z" fill="none" stroke="#000" stroke-width="2.4"/><circle cx="293.77" cy="253.667" r=".512" fill="none" stroke="#000" stroke-width="2.4"/><path d="M202.746 314.466a.43.43 0 1 1 .429.744.43.43 0 0 1-.429-.744ZM283.174 242.558a.513.513 0 1 1-1.027 0 .513.513 0 0 1 1.027 0ZM190.63 311.219a.43.43 0 1 1-.744.429.43.43 0 0 1 .744-.429ZM283.174 264.775a.513.513 0 1 1-1.025-.001.513.513 0 0 1 1.025.001ZM199.929 327.326a.43.43 0 1 1-.745.428.43.43 0 0 1 .745-.428Z" fill="none" stroke="#000" stroke-width="2.4"/><circle cx="287.252" cy="253.667" r=".512" fill="none" stroke="#000" stroke-width="2.4"/><path d="M198.022 317.194a.43.43 0 1 1 .428.745.43.43 0 0 1-.428-.745Z" fill="none" stroke="#000" stroke-width="2.4"/><circle cx="282.667" cy="249.081" r=".512" fill="none" stroke="#000" stroke-width="2.4"/><path d="M192.778 315.789a.429.429 0 1 1 .43.743.429.429 0 0 1-.43-.743Z" fill="none" stroke="#000" stroke-width="2.4"/><circle cx="282.667" cy="258.252" r=".512" fill="none" stroke="#000" stroke-width="2.4"/><path d="M196.616 322.438a.428.428 0 1 1 .43.741.428.428 0 0 1-.43-.741ZM273.079 255.14a1.893 1.893 0 1 1-1.187-3.365c.45 0 .863.157 1.187.419M188.577 324.566a1.583 1.583 0 1 1-1.233-2.136M292.254 252.194a1.892 1.892 0 1 1 0 2.946M201.246 314.404a1.585 1.585 0 0 1 2.849-.221 1.585 1.585 0 0 1-1.616 2.357M281.194 244.079a1.893 1.893 0 1 1 2.946 0M189.831 313.151a1.582 1.582 0 0 1-.221-2.849 1.583 1.583 0 0 1 2.356 1.616M284.14 263.254a1.893 1.893 0 1 1-2.946 0M199.992 325.819a1.585 1.585 0 0 1 .221 2.849 1.584 1.584 0 0 1-2.356-1.616" fill="none" stroke="#000" stroke-width="2.4"/><path d="M273.079 255.14a1.893 1.893 0 1 1-1.187-3.365c.45 0 .863.157 1.187.419M188.577 324.566a1.583 1.583 0 1 1-1.233-2.136" fill="none" stroke="#000" stroke-width="2.4"/><path d="m271.973 250.907.434.868h-.867l.433-.868ZM186.004 321.96l.677.447-.628.363-.049-.81ZM271.973 256.426l-.433-.867h.867l-.434.867ZM188.314 325.961l-.677-.447.628-.363.049.81ZM293.36 250.907l.434.868h-.868l.434-.868ZM201.509 313.009l.677.447-.628.363-.049-.81ZM293.36 256.426l-.434-.867h.868l-.434.867ZM203.819 317.009l-.677-.447.628-.363.049.81ZM285.426 242.973l-.867.434v-.867l.867.433ZM192.436 310.577l-.447.678-.363-.629.81-.049ZM279.907 242.973l.868-.433v.867l-.868-.434ZM188.435 312.887l.447-.677.363.629-.81.048ZM285.426 264.36l-.867.434v-.868l.867.434ZM201.388 326.082l-.447.678-.363-.629.81-.049ZM279.907 264.36l.868-.434v.868l-.868-.434ZM197.387 328.392l.447-.677.363.629-.81.048Z" fill="none" stroke="#000" stroke-width="2.4"/><path d="m60.62 244.835-7.87 6.04m14.117-2.433-1.294 9.836m8.262-11.703 6.04 7.871m-2.433-14.118 9.836 1.295m-11.703-8.263 7.871-6.039m-14.118 2.432 1.295-9.835M62.36 231.62l-6.039-7.87m2.432 14.117-9.835-1.294m42.277-3.664-19.289 5.168m16.9 12.977-17.295-9.985m2.776 21.126-5.169-19.289m-12.977 16.9 9.986-17.295M45 245.287l19.289-5.169m-16.9-12.977 17.295 9.986M61.909 216l5.168 19.289m2.992.395 9.985-17.295M67.077 235.289a3.945 3.945 0 0 1 4.829 2.788 3.945 3.945 0 0 1-2.788 4.829 3.945 3.945 0 0 1-4.829-2.788 3.945 3.945 0 0 1 2.788-4.829Z" fill="none" stroke="#000" stroke-width="2.27"/><path d="M65.659 229.995c5.023-1.346 10.195 1.64 11.541 6.664 1.346 5.023-1.64 10.195-6.663 11.541-5.024 1.346-10.196-1.64-11.542-6.663-1.346-5.024 1.64-10.196 6.664-11.542Z" fill="none" stroke="#000" stroke-width="2.27"/><path d="m48.753 152.829-4.556.6m6.226 2.293-2.797 3.645m6.024-2.78.599 4.555m2.294-6.226 3.645 2.797m-2.781-6.024 4.556-.599m-6.226-2.294 2.797-3.645m-6.024 2.781-.599-4.555m-2.294 6.225-3.645-2.797m17.805 8.32-8.933-2.393m3.773 9.118-4.624-8.01m-3.779 9.116 2.393-8.933m-9.117 3.773 8.009-4.624m-9.116-3.779 8.933 2.394m-3.773-9.118 4.624 8.009m3.779-9.116-2.393 8.933m1.108.851 8.01-4.624M53.553 150.495a1.827 1.827 0 0 1-.946 3.528 1.828 1.828 0 0 1-1.291-2.236 1.828 1.828 0 0 1 2.237-1.292Z" fill="none" stroke="#000" stroke-width=".8"/><path d="M54.21 148.044a4.365 4.365 0 0 1-2.259 8.431 4.365 4.365 0 0 1 2.259-8.431Z" fill="none" stroke="#000" stroke-width=".8"/></svg>