<svg width="1366" height="1366" xmlns="http://www.w3.org/2000/svg" xml:space="preserve" fill-rule="evenodd" clip-rule="evenodd" stroke-linejoin="round" stroke-miterlimit="2"><path d="M721.24 74.84c0-21.525-17.475-39-39-39s-39 17.475-39 39V269.8c0 21.525 17.475 39 39 39s39-17.475 39-39V74.84ZM1289.64 721.24c21.52 0 39-17.475 39-39s-17.48-39-39-39h-194.96c-21.53 0-39 17.475-39 39s17.47 39 39 39h194.96ZM643.24 1289.64c0 21.52 17.475 39 39 39s39-17.48 39-39v-194.96c0-21.53-17.475-39-39-39s-39 17.47-39 39v194.96ZM74.84 643.24c-21.525 0-39 17.475-39 39s17.475 39 39 39H269.8c21.525 0 39-17.475 39-39s-17.475-39-39-39H74.84ZM1139.31 280.321c15.22-15.221 15.22-39.935 0-55.155-15.22-15.22-39.93-15.22-55.15 0L946.302 363.024c-15.22 15.22-15.22 39.934 0 55.154 15.22 15.22 39.934 15.22 55.158 0l137.85-137.857ZM1084.16 1139.31c15.22 15.22 39.93 15.22 55.15 0 15.22-15.22 15.22-39.93 0-55.15l-137.85-137.858c-15.224-15.22-39.938-15.22-55.158 0-15.22 15.22-15.22 39.934 0 55.158l137.858 137.85ZM225.166 1084.16c-15.22 15.22-15.22 39.93 0 55.15 15.22 15.22 39.934 15.22 55.155 0l137.857-137.85c15.22-15.224 15.22-39.938 0-55.158-15.22-15.22-39.934-15.22-55.154 0L225.166 1084.16ZM280.321 225.166c-15.221-15.22-39.935-15.22-55.155 0-15.22 15.22-15.22 39.934 0 55.155l137.858 137.857c15.22 15.22 39.934 15.22 55.154 0 15.22-15.22 15.22-39.934 0-55.154L280.321 225.166ZM682.24 390.797c160.852 0 291.443 130.591 291.443 291.443 0 160.852-130.591 291.443-291.443 291.443-160.852 0-291.443-130.591-291.443-291.443 0-160.852 130.591-291.443 291.443-291.443Zm0 80.611c116.361 0 210.832 94.471 210.832 210.832 0 116.361-94.471 210.832-210.832 210.832-116.361 0-210.832-94.471-210.832-210.832 0-116.361 94.471-210.832 210.832-210.832Z"/></svg>