<svg width="512" height="512" xmlns="http://www.w3.org/2000/svg" xml:space="preserve" fill-rule="evenodd" clip-rule="evenodd" stroke-linecap="round" stroke-linejoin="round" stroke-miterlimit="1.5"><circle cx="255.914" cy="256" r="94.57" fill="none" stroke="#fff" stroke-width="41.67"/><circle cx="255.914" cy="256" r="111" fill="none" stroke="#fff" stroke-width="41.67"/><path d="m195.255 276.258.303-.617a32.34 32.34 0 0 1-2.532-32.957c6.862-13.862 22.33-20.633 36.748-17.054a43.335 43.335 0 0 0-3.224 7.587c-1.322 4.17-3.214 11.568-2.062 13.566 1.152 1.998 6.92.141 8.976-1.577 2.057-1.718 2.371-5.604 3.363-8.732 5.393-17.015 23.586-26.451 40.601-21.058a32.32 32.32 0 0 1 12.333 7.222c-5.697.018-16.456 1.311-16.969 3.55-.634 2.764 7.736 4.947 11.86 6.16 7.876 2.317 23.668 2.524 32.296 15.661 9.8 14.919 5.643 34.987-9.276 44.786a32.343 32.343 0 0 1-17.007 5.301h-82.134c-8.295-.291-14.93-7.107-14.93-15.473 0-2.306.661-4.283 1.654-6.365Z" fill="#cacaca"/><path d="M236.51 216.418c11.017-11.479 27.995-16.407 44.175-11.279a43.126 43.126 0 0 1 24.803 20.412 43.013 43.013 0 0 1 20.471 16.539c13.066 19.892 7.523 46.65-12.369 59.716a43.123 43.123 0 0 1-23.414 7.079v-.016h-81.093v.016c-14.503 0-26.261-11.758-26.261-26.262 0-2.062.243-4.11.719-6.104a43.126 43.126 0 0 1-.176-38.618c9.812-19.82 32.819-28.768 53.145-21.483Zm-41.255 59.84c-.993 2.082-1.654 4.059-1.654 6.365 0 8.366 6.635 15.182 14.93 15.473h82.134a32.343 32.343 0 0 0 17.007-5.301c14.919-9.799 19.076-29.867 9.276-44.786-8.628-13.137-24.42-13.344-32.296-15.661-4.124-1.213-12.494-3.396-11.86-6.16.513-2.239 11.272-3.532 16.969-3.55a32.32 32.32 0 0 0-12.333-7.222c-17.015-5.393-35.208 4.043-40.601 21.058-.992 3.128-1.306 7.014-3.363 8.732-2.056 1.718-7.824 3.575-8.976 1.577-1.152-1.998.74-9.396 2.062-13.566a43.335 43.335 0 0 1 3.224-7.587c-14.418-3.579-29.886 3.192-36.748 17.054a32.34 32.34 0 0 0 2.532 32.957l-.303.617Z" stroke="#fff" stroke-width="2.5"/><path d="M204.231 275.784c0 8.822 7.152 15.973 15.974 15.973 2.116 0 4.211-.42 6.163-1.237l-1.541-3.684a11.966 11.966 0 0 1-4.622.928c-6.617 0-11.98-5.364-11.98-11.98h-3.994ZM284.652 287.727a15.974 15.974 0 0 0 4.196 1.8c8.516 2.282 17.282-2.779 19.564-11.295.396-1.477.577-3.004.539-4.533l-3.992.099a11.971 11.971 0 0 1-.405 3.401c-1.711 6.387-8.285 10.182-14.672 8.471a11.964 11.964 0 0 1-3.147-1.35l-2.083 3.407Z" stroke="#fff" stroke-width="1.11"/><circle cx="255.914" cy="256" r="105" fill="none" stroke="#000" stroke-width="41.67"/><g stroke="#fff" stroke-width="3.33"><path d="M275.82 30.907C275.82 19.92 266.901 11 255.914 11c-10.987 0-19.907 8.92-19.907 19.907v63.186c0 10.987 8.92 19.907 19.907 19.907s19.906-8.92 19.906-19.907V30.907ZM236.093 481.093c0 10.987 8.92 19.907 19.907 19.907s19.907-8.92 19.907-19.907v-63.186c0-10.987-8.92-19.907-19.907-19.907s-19.907 8.92-19.907 19.907v63.186ZM481.05 275.863c10.987 0 19.907-8.919 19.907-19.906 0-10.987-8.92-19.907-19.907-19.907h-63.187c-10.986 0-19.906 8.92-19.906 19.907s8.92 19.906 19.906 19.906h63.187ZM30.863 236.137c-10.986 0-19.906 8.919-19.906 19.906 0 10.987 8.92 19.907 19.906 19.907H94.05c10.987 0 19.907-8.92 19.907-19.907s-8.92-19.906-19.907-19.906H30.863Z"/></g><g stroke="#fff" stroke-width="3.33"><path d="M429.168 110.881c7.768-7.769 7.768-20.384 0-28.153-7.769-7.768-20.384-7.768-28.153 0l-44.679 44.68c-7.769 7.769-7.769 20.384 0 28.152 7.768 7.769 20.383 7.769 28.152 0l44.68-44.679ZM82.746 401.119c-7.769 7.769-7.769 20.384 0 28.153 7.769 7.768 20.384 7.768 28.152 0l44.68-44.68c7.769-7.769 7.769-20.384 0-28.152-7.769-7.769-20.383-7.769-28.152 0l-44.68 44.679ZM401.076 429.211c7.769 7.768 20.384 7.768 28.153 0 7.768-7.769 7.768-20.384 0-28.152l-44.68-44.68c-7.769-7.769-20.384-7.769-28.152 0-7.769 7.768-7.769 20.383 0 28.152l44.679 44.68ZM110.837 82.789c-7.768-7.768-20.383-7.768-28.152 0-7.769 7.769-7.769 20.384 0 28.152l44.68 44.68c7.769 7.769 20.383 7.769 28.152 0 7.769-7.768 7.769-20.383 0-28.152l-44.68-44.68Z"/></g></svg>